<svg version="1.2" xmlns="http://www.w3.org/2000/svg" viewBox="0 0 256 256" width="32" height="32">
  <defs>
    <clipPath clipPathUnits="userSpaceOnUse" id="cp1">
      <path
        d="m8.99 36.99c0-15.47 12.53-28 28-28h181.32c15.46 0 28 12.53 28 28v181.32c0 15.46-12.54 28-28 28h-181.32c-15.47 0-28-12.54-28-28z" />
    </clipPath>
  </defs>
  <style>
    .a {
      fill: #1b3c71
    }

    .b {
      fill: #fff
    }

    .c {
      fill: #50b4c3
    }
  </style>
  <path class="a"
    d="m9 37c0-15.5 12.5-28 28-28h181.3c15.5 0 28 12.5 28 28v181.3c0 15.5-12.5 28-28 28h-181.3c-15.5 0-28-12.5-28-28z" />
  <path fill-rule="evenodd" class="a"
    d="m218 255.3h-180.7c-4.9 0-9.7-1-14.3-2.8-4.5-1.9-8.6-4.7-12.1-8.1-3.4-3.5-6.2-7.6-8.1-12.1-1.8-4.6-2.8-9.4-2.8-14.3v-180.7c0-4.9 1-9.7 2.8-14.3 1.9-4.5 4.7-8.6 8.1-12.1 3.5-3.4 7.6-6.2 12.1-8.1 4.6-1.8 9.4-2.8 14.3-2.8h180.7c4.9 0 9.7 1 14.3 2.8 4.5 1.9 8.6 4.7 12.1 8.1 3.4 3.5 6.2 7.6 8.1 12.1 1.8 4.6 2.8 9.4 2.8 14.3v180.7c0 4.9-1 9.7-2.8 14.3-1.9 4.5-4.7 8.6-8.1 12.1-3.5 3.4-7.6 6.2-12.1 8.1-4.6 1.8-9.4 2.8-14.3 2.8zm-180.7-237.3c-2.5 0-5 0.5-7.4 1.5-2.3 0.9-4.5 2.4-6.3 4.1-1.7 1.8-3.2 4-4.1 6.3-1 2.4-1.5 4.9-1.5 7.4v180.7c0 2.5 0.5 5 1.5 7.4 0.9 2.3 2.4 4.5 4.1 6.3 1.8 1.8 4 3.2 6.3 4.1 2.4 1 4.9 1.5 7.4 1.5h180.7c2.5 0 5-0.5 7.4-1.5 2.3-0.9 4.5-2.3 6.3-4.1 1.8-1.8 3.2-4 4.1-6.3 1-2.4 1.5-4.9 1.5-7.4v-180.7c0-2.5-0.5-5-1.5-7.4-0.9-2.3-2.3-4.5-4.1-6.3-1.8-1.7-4-3.2-6.3-4.1-2.4-1-4.9-1.5-7.4-1.5z" />
  <g clip-path="url(#cp1)">
    <path class="b"
      d="m129.6 8.3c-16.5 23.4-51.7 28.5-97.4 11.5q-3.3-1.3-6.5-2.6-3.3-1.3-6.5-2.8-3.2-1.4-6.4-2.9-3.2-1.5-6.3-3.2z" />
    <path class="b" d="m248.2 67.1v130.4c-61.1-41.4-80.4-87.4-47.1-113.2 11.2-8.7 27.4-14.4 47.1-17.2z" />
    <path class="c"
      d="m248.2 8.3v37.7q-2.8 0.7-5.6 1.2-2.8 0.5-5.6 0.9-2.8 0.4-5.6 0.6-2.8 0.3-5.7 0.4c-33.2 1.3-54.2-14.1-60.4-40.8z" />
    <path class="b" d="m89.4 99.9c-6.1 32.5-41 69.3-91.2 99v-162.7c62-0.2 98.6 24.3 91.2 63.7z" />
    <path class="b"
      d="m187.2 265.5h-158.5q2.6-8.8 5.6-17.4 3-8.6 6.4-17.1 3.4-8.5 7.1-16.8 3.8-8.3 7.9-16.5c35.4-68.4 79.4-94.2 107.5-63 20.7 22.9 29.1 72.4 24 130.8z" />
  </g>
</svg>
