<svg version="1.2" xmlns="http://www.w3.org/2000/svg" viewBox="0 0 320 460" width="320" height="460"><style>.a{fill:#1b3c71}.b{fill:#50b4c3}</style><path class="a" d="m101.2 320.6v83.6h-25.2v-45l-24.1 33.5h-2.4l-24.1-33.4v44.9h-25.4v-83.6h25.4l25.2 35.8 25.4-35.7z"/><path class="a" d="m166 405.9c-13.7 0-26.9-4.5-36.6-12.7-9.7-8.2-15.1-19.2-15.1-30.8 0-11.5 5.4-22.6 15.1-30.7 9.7-8.2 22.9-12.8 36.6-12.8q3.2 0 6.5 0.3 3.2 0.4 6.4 1 3.1 0.7 6.1 1.7 3.1 1 5.9 2.4 2.8 1.3 5.3 2.8 2.6 1.6 4.9 3.4 2.3 1.9 4.2 3.9 2 2.1 3.6 4.4l-21.8 10.5q-0.7-1.1-1.6-2.1-1-1.1-2-1.9-1.1-0.9-2.3-1.7-1.2-0.7-2.5-1.3-1.5-0.7-3-1.1-1.5-0.5-3.1-0.9-1.6-0.3-3.2-0.4-1.7-0.2-3.3-0.2-2.6-0.1-5.3 0.3-2.6 0.4-5.1 1.2-2.4 0.8-4.7 2-2.2 1.2-4.1 2.8c-2.3 2.2-4.2 4.8-5.4 7.6-1.3 2.8-1.9 5.8-1.9 8.8 0 2.9 0.6 5.9 1.9 8.7 1.2 2.8 3.1 5.4 5.4 7.7 2.1 1.6 4.5 2.9 7 4 2.6 1 5.4 1.7 8.2 2 2.8 0.3 5.7 0.3 8.5-0.1 2.8-0.4 5.5-1.1 8.1-2.2q1.3-0.6 2.5-1.4 1.2-0.7 2.3-1.6 1.1-0.9 2-2 0.9-1 1.6-2.1l22 10.8q-1.7 2.2-3.6 4.3-2 2.1-4.3 3.9-2.2 1.9-4.8 3.4-2.5 1.6-5.3 2.9-2.9 1.3-5.9 2.3-3.1 1-6.2 1.7-3.2 0.6-6.5 1-3.2 0.3-6.5 0.2z"/><path class="a" d="m319.2 320.6v83.6h-25.2v-45l-24.1 33.5h-2.5l-24-33.4v44.9h-25.4v-83.6h25.4l25.2 35.8 25.4-35.7z"/><path class="a" d="m168.3 0c-21 25-65.8 30.5-123.8 12.2q-4.2-1.3-8.4-2.7-4.1-1.4-8.2-3-4.1-1.5-8.1-3.1-4.1-1.7-8-3.4z"/><path class="a" d="m319.1 63v139.6c-77.6-44.4-102.2-93.6-59.9-121.3 14.3-9.3 34.9-15.4 59.9-18.3z"/><path class="b" d="m319.1 0v40.4q-3.5 0.7-7.1 1.2-3.5 0.6-7.1 1-3.6 0.4-7.2 0.7-3.6 0.3-7.2 0.4c-42.2 1.3-69-15.1-76.8-43.7z"/><path class="a" d="m117.2 98c-7.8 34.8-52.2 74.3-116.1 106.1v-174.2c79-0.3 125.4 26 116.1 68.1z"/><path class="a" d="m241.6 275.3h-201.6q3.3-9.4 7.1-18.6 3.8-9.3 8.1-18.3 4.3-9.1 9.1-18 4.8-8.9 10.1-17.6c45-73.3 100.9-100.9 136.7-67.6 26.2 24.6 36.9 77.6 30.5 140.1z"/><path class="a" d="m13.2 460q-1.1 0-2.2-0.1-1.1-0.1-2.2-0.4-1.1-0.3-2.1-0.7-1-0.4-2-0.9-0.8-0.4-1.5-1-0.8-0.5-1.4-1.2-0.6-0.7-1-1.4-0.5-0.8-0.8-1.6l2.5-1.1q0.2 0.7 0.5 1.3 0.4 0.6 0.9 1.2 0.5 0.6 1.1 1.1 0.5 0.5 1.2 0.9 0.8 0.4 1.7 0.7 0.8 0.3 1.7 0.6 0.9 0.2 1.9 0.2 0.9 0.1 1.8 0.1 0.9 0 1.8 0 0.9-0.1 1.8-0.3 0.8-0.2 1.6-0.6 0.8-0.3 1.6-0.8 0.5-0.4 1-0.9 0.5-0.5 0.8-1 0.3-0.6 0.5-1.2 0.1-0.6 0.1-1.3 0.1-0.5-0.1-1.1-0.1-0.5-0.4-1.1-0.3-0.5-0.8-0.9-0.4-0.4-0.9-0.7-0.9-0.5-1.7-0.9-0.9-0.3-1.8-0.7-0.9-0.3-1.8-0.6-0.9-0.3-1.8-0.5l-2.5-0.8-2.3-0.7q-0.3-0.1-0.6-0.2-0.2-0.1-0.5-0.2-0.3-0.1-0.6-0.2-0.3-0.1-0.5-0.2-0.8-0.4-1.7-1.1-0.3-0.1-0.5-0.3-0.2-0.1-0.4-0.3-0.1-0.2-0.3-0.3-0.2-0.2-0.3-0.4-0.2-0.2-0.3-0.4-0.1-0.2-0.2-0.4-0.1-0.2-0.2-0.4-0.1-0.2-0.2-0.4 0-0.3-0.1-0.5-0.1-0.3-0.1-0.5-0.1-0.3-0.1-0.6 0-0.2 0-0.5 0-0.8 0.1-1.7 0.2-0.8 0.6-1.6 0.4-0.7 1.1-1.4 0.6-0.7 1.3-1.2 0.8-0.6 1.8-1 0.9-0.5 1.9-0.8 1-0.2 2-0.4 1.1-0.1 2.1-0.1 1 0 1.9 0.1 1 0.1 1.9 0.3 0.9 0.3 1.8 0.6 0.9 0.4 1.7 0.8 0.7 0.4 1.3 0.9 0.7 0.6 1.3 1.1 0.5 0.6 1 1.3 0.4 0.6 0.7 1.3l-2.3 1.1q-0.5-1.2-1.4-2.2-0.9-1-2.2-1.7-1.2-0.7-2.7-1.1-1.5-0.3-3-0.3-0.8 0-1.6 0.1-0.8 0.1-1.5 0.3-0.8 0.2-1.5 0.5-0.7 0.4-1.3 0.8-0.5 0.4-1 0.9-0.4 0.4-0.7 1-0.2 0.5-0.4 1.1-0.1 0.6-0.1 1.1-0.1 0.6 0 1.1 0.2 0.5 0.4 1 0.3 0.5 0.7 0.9 0.4 0.4 0.9 0.7 0.8 0.4 1.7 0.8 0.8 0.4 1.6 0.7 0.9 0.3 1.7 0.6 0.9 0.2 1.8 0.5l4.7 1.4q0.4 0.2 0.9 0.4 0.5 0.1 0.9 0.3 0.5 0.2 0.9 0.4 0.5 0.3 0.9 0.5 0.4 0.2 0.8 0.5 0.4 0.2 0.8 0.5 0.4 0.3 0.7 0.7 0.3 0.3 0.5 0.7 0.2 0.4 0.4 0.8 0.2 0.4 0.3 0.8 0.1 0.4 0.1 0.9 0.1 0.4 0.1 0.8 0 0.9-0.2 1.7-0.2 0.9-0.6 1.6-0.4 0.8-1.1 1.5-0.6 0.7-1.4 1.3-0.9 0.6-2 1.1-1 0.5-2.2 0.8-1.1 0.3-2.3 0.4-1.2 0.2-2.4 0.1z"/><path class="a" d="m73.8 429l-13.1 17.9v12.5h-2.7v-12.5l-13.2-17.9h3.2l11.4 15.7 11.4-15.7z"/><path class="a" d="m106.5 460q-1.1 0-2.2-0.1-1.1-0.1-2.2-0.3-1.1-0.3-2.1-0.7-1-0.3-2-0.8-0.8-0.5-1.6-1-0.7-0.6-1.3-1.3-0.6-0.7-1.1-1.4-0.4-0.8-0.7-1.6l2.5-1.1q0.2 0.6 0.5 1.3 0.4 0.6 0.9 1.2 0.4 0.6 1 1 0.6 0.5 1.3 0.9 0.8 0.5 1.6 0.8 0.9 0.3 1.8 0.5 0.9 0.2 1.8 0.3 1 0.1 1.9 0.1 0.9 0 1.8-0.1 0.9 0 1.7-0.2 0.9-0.3 1.7-0.6 0.8-0.3 1.5-0.8 0.6-0.4 1.1-0.9 0.4-0.5 0.7-1.1 0.3-0.5 0.5-1.1 0.1-0.7 0.1-1.3 0-0.6-0.1-1.1-0.2-0.6-0.5-1.1-0.3-0.5-0.7-0.9-0.4-0.4-1-0.8-0.8-0.4-1.7-0.8-0.8-0.4-1.7-0.7-0.9-0.3-1.8-0.6-0.9-0.3-1.9-0.5l-2.4-0.8-2.3-0.7q-0.3-0.1-0.6-0.2-0.3-0.1-0.6-0.2-0.3-0.1-0.5-0.2-0.3-0.1-0.6-0.3c-0.4-0.2-1-0.6-1.7-1q-0.2-0.1-0.4-0.3-0.2-0.1-0.4-0.3-0.2-0.2-0.3-0.3-0.2-0.2-0.4-0.4-0.1-0.2-0.2-0.4-0.1-0.2-0.2-0.4-0.1-0.2-0.2-0.4-0.1-0.2-0.2-0.4-0.1-0.3-0.2-0.5 0-0.3-0.1-0.6 0-0.2 0-0.5-0.1-0.2-0.1-0.5 0-0.9 0.2-1.7 0.2-0.8 0.6-1.6 0.4-0.8 1-1.4 0.6-0.7 1.4-1.3 0.8-0.5 1.7-1 0.9-0.4 1.9-0.7 1-0.3 2-0.4 1.1-0.2 2.1-0.2 1 0 2 0.1 0.9 0.1 1.8 0.4 1 0.2 1.8 0.5 0.9 0.4 1.7 0.8 0.7 0.5 1.4 1 0.6 0.5 1.2 1.1 0.5 0.6 1 1.2 0.4 0.7 0.8 1.3l-2.3 1.1q-0.5-1.2-1.5-2.2-0.9-1-2.2-1.7-1.2-0.7-2.7-1.1-1.4-0.3-3-0.2-0.8-0.1-1.5 0-0.8 0.1-1.6 0.3-0.8 0.2-1.5 0.6-0.7 0.3-1.3 0.7-0.5 0.4-0.9 0.9-0.5 0.4-0.7 1-0.3 0.5-0.5 1.1-0.1 0.6-0.1 1.2 0 0.5 0.1 1 0.1 0.6 0.4 1 0.2 0.5 0.6 0.9 0.4 0.4 1 0.8 0.8 0.4 1.6 0.7 0.8 0.4 1.6 0.7 0.9 0.3 1.7 0.6 0.9 0.3 1.8 0.5l4.7 1.5q0.4 0.1 0.9 0.3 0.5 0.2 0.9 0.3 0.5 0.2 0.9 0.5 0.5 0.2 0.9 0.4 0.4 0.2 0.8 0.5 0.4 0.3 0.8 0.6 0.4 0.3 0.7 0.6 0.3 0.4 0.5 0.7 0.2 0.4 0.4 0.8 0.2 0.4 0.3 0.8 0.1 0.4 0.2 0.9 0 0.4 0 0.8 0 0.9-0.2 1.7-0.2 0.9-0.6 1.7-0.4 0.8-1 1.4-0.7 0.7-1.5 1.3-0.9 0.6-1.9 1.1-1 0.5-2.2 0.8-1.1 0.3-2.2 0.4-1.2 0.1-2.4 0.1z"/><path class="a" d="m164.6 429v2.1h-11.4v28.2h-2.8v-28.1h-11.3v-2.1z"/><path class="a" d="m191.6 457.3h18v2h-20.8v-30.3h20.6v2.1h-17.8v11.8h16.5v2.1h-16.5z"/><path class="a" d="m267.6 429v30.4h-2.7v-26.9l-13.4 18.7h-0.4l-13.4-18.7v26.9h-2.8v-30.4h3.5l12.9 18 12.9-18z"/><path class="a" d="m305.7 460q-1.1 0-2.2-0.1-1.1-0.1-2.2-0.3-1.1-0.3-2.1-0.7-1-0.3-2-0.8-0.8-0.5-1.6-1-0.7-0.6-1.3-1.3-0.6-0.7-1.1-1.4-0.4-0.8-0.7-1.6l2.5-1.1q0.2 0.6 0.5 1.3 0.4 0.6 0.9 1.2 0.5 0.6 1 1 0.6 0.5 1.3 0.9 0.8 0.5 1.7 0.8 0.8 0.3 1.7 0.5 0.9 0.2 1.9 0.3 0.9 0.1 1.8 0.1 0.9 0 1.8-0.1 0.9 0 1.8-0.2 0.8-0.3 1.6-0.6 0.8-0.3 1.5-0.8 0.6-0.4 1.1-0.9 0.5-0.5 0.8-1.1 0.3-0.5 0.5-1.1 0.1-0.7 0.1-1.3 0-0.6-0.1-1.1-0.1-0.6-0.4-1.1-0.3-0.5-0.8-0.9-0.4-0.4-1-0.8-0.8-0.4-1.7-0.8-0.8-0.4-1.7-0.7-0.9-0.3-1.8-0.6-0.9-0.3-1.9-0.5l-2.4-0.8-2.3-0.7q-0.3-0.1-0.6-0.2-0.3-0.1-0.6-0.2-0.2-0.1-0.5-0.2-0.3-0.1-0.5-0.3-0.8-0.4-1.8-1-0.2-0.1-0.4-0.3-0.2-0.1-0.4-0.3-0.2-0.2-0.3-0.3-0.2-0.2-0.3-0.4-0.2-0.2-0.3-0.4-0.1-0.2-0.2-0.4-0.1-0.2-0.2-0.4-0.1-0.2-0.2-0.4-0.1-0.3-0.1-0.5-0.1-0.3-0.2-0.6 0-0.2 0-0.5 0-0.2 0-0.5-0.1-0.9 0.1-1.7 0.2-0.8 0.6-1.6 0.4-0.8 1-1.4 0.6-0.7 1.4-1.3 0.8-0.5 1.7-1 0.9-0.4 1.9-0.7 1.1-0.3 2.1-0.4 1-0.1 2.1-0.1 1 0 1.9 0.1 1 0.1 1.9 0.3 0.9 0.2 1.8 0.6 0.8 0.3 1.6 0.8 0.8 0.4 1.4 0.9 0.7 0.6 1.2 1.1 0.6 0.6 1 1.3 0.5 0.6 0.8 1.3l-2.3 1.1q-0.5-1.2-1.4-2.2-0.9-1-2.2-1.8-1.3-0.7-2.7-1-1.5-0.3-3-0.3-0.8 0-1.6 0.1-0.8 0.1-1.5 0.3-0.8 0.2-1.5 0.5-0.7 0.4-1.3 0.8-0.6 0.4-1 0.8-0.4 0.5-0.7 1-0.3 0.6-0.4 1.2-0.2 0.5-0.1 1.1-0.1 0.6 0 1.1 0.1 0.5 0.4 1 0.3 0.5 0.7 0.9 0.4 0.4 0.9 0.7 0.8 0.4 1.6 0.8 0.8 0.4 1.7 0.7 0.8 0.3 1.7 0.6 0.9 0.2 1.8 0.4 3 1 4.6 1.5 0.5 0.2 1 0.3 0.4 0.2 0.9 0.4 0.4 0.2 0.9 0.4 0.4 0.2 0.9 0.5 0.4 0.2 0.8 0.5 0.4 0.2 0.8 0.5 0.3 0.3 0.6 0.7 0.3 0.3 0.6 0.7 0.2 0.4 0.4 0.8 0.1 0.4 0.3 0.8 0.1 0.4 0.1 0.8 0.1 0.5 0.1 0.9 0 0.9-0.2 1.7-0.2 0.8-0.6 1.6-0.4 0.8-1.1 1.5-0.6 0.7-1.4 1.2-0.9 0.7-2 1.1-1 0.5-2.2 0.8-1.1 0.3-2.3 0.4-1.2 0.2-2.4 0.1z"/></svg>