<svg id="Layer_1" data-name="Layer 1" xmlns="http://www.w3.org/2000/svg" viewBox="0 0 237.44 237.43"><defs><style>.cls-1{fill:#1b3c71;}.cls-2{fill:#fff;}.cls-3{fill:#50b4c3;}</style></defs><rect class="cls-1" width="237.44" height="237.43"/><path class="cls-2" d="M123.44,24.29c-12.13,17.13-38,20.92-71.53,8.4A174.29,174.29,0,0,1,33,24.29Z"/><path class="cls-2" d="M210.55,67.49v95.78c-44.84-30.45-59-64.2-34.61-83.17C184.17,73.71,196.07,69.52,210.55,67.49Z"/><path class="cls-3" d="M210.55,24.29V52A89.73,89.73,0,0,1,194,54.26c-24.39.9-39.83-10.35-44.38-30Z"/><path class="cls-2" d="M93.92,91.55c-4.49,23.86-30.13,50.92-67,72.74V44.79C72.49,44.62,99.32,62.6,93.92,91.55Z"/><path class="cls-2" d="M165.73,213.14H49.31a295,295,0,0,1,19.88-49.75c26-50.24,58.26-69.21,78.93-46.31C163.3,133.9,169.47,170.26,165.73,213.14Z"/></svg>