<svg height="30px" width="30px" id="Layer_1" data-name="Layer 1" xmlns="http://www.w3.org/2000/svg"
  xmlns:xlink="http://www.w3.org/1999/xlink" viewBox="0 0 242.34 242.34">
  <defs>
    <style>
      .cls-1 {
        fill: none;
      }

      .cls-2 {
        fill: #1b3c71;
      }

      .cls-3 {
        clip-path: url(#clip-path);
      }

      .cls-4 {
        fill: #fff;
      }

      .cls-5 {
        fill: #50b4c3;
      }
    </style>
    <clipPath id="clip-path">
      <rect class="cls-1" x="8.53" y="8.53" width="225.27" height="225.27" rx="26.89" />
    </clipPath>
  </defs>
  <rect class="cls-2" x="8.53" y="8.53" width="225.27" height="225.27" rx="26.89" />
  <path class="cls-2"
    d="M206.91,242.34H35.43A35.43,35.43,0,0,1,0,206.91V35.43A35.43,35.43,0,0,1,35.43,0H206.91a35.43,35.43,0,0,1,35.43,35.43V206.91A35.43,35.43,0,0,1,206.91,242.34ZM35.43,17.07A18.36,18.36,0,0,0,17.07,35.43V206.91a18.36,18.36,0,0,0,18.36,18.36H206.91a18.36,18.36,0,0,0,18.36-18.36V35.43a18.36,18.36,0,0,0-18.36-18.36Z" />
  <g class="cls-3">
    <path class="cls-4" d="M123,7.91c-15.67,22.14-49.1,27-92.43,10.85A226.26,226.26,0,0,1,6.18,7.91Z" />
    <path class="cls-4"
      d="M235.59,63.73V187.51c-58-39.34-76.29-83-44.72-107.48C201.5,71.77,216.88,66.36,235.59,63.73Z" />
    <path class="cls-5" d="M235.59,7.91v35.8a116.19,116.19,0,0,1-21.34,2.92c-31.53,1.17-51.48-13.37-57.36-38.72Z" />
    <path class="cls-4" d="M84.88,94.82c-5.81,30.84-38.95,65.8-86.63,94V34.4C57.19,34.18,91.86,57.41,84.88,94.82Z" />
    <path class="cls-4"
      d="M177.68,252H27.23a380.68,380.68,0,0,1,25.68-64.3c33.58-64.92,75.3-89.44,102-59.84C174.54,149.55,182.5,196.54,177.68,252Z" />
  </g>
</svg>
